<svg width="14" height="17" viewBox="0 0 14 17" fill="none" xmlns="http://www.w3.org/2000/svg">
<path d="M6.99967 15.1248C8.69412 13.5693 9.95106 12.1561 10.7705 10.8853C11.59 9.61442 11.9997 8.48595 11.9997 7.49984C11.9997 5.98595 11.517 4.74637 10.5518 3.78109C9.58648 2.81581 8.40245 2.33317 6.99967 2.33317C5.5969 2.33317 4.41287 2.81581 3.44759 3.78109C2.48231 4.74637 1.99967 5.98595 1.99967 7.49984C1.99967 8.48595 2.4094 9.61442 3.22884 10.8853C4.04829 12.1561 5.30523 13.5693 6.99967 15.1248ZM6.99967 16.7707C6.80523 16.7707 6.61079 16.736 6.41634 16.6665C6.2219 16.5971 6.04829 16.4929 5.89551 16.354C4.99273 15.5207 4.19412 14.7082 3.49967 13.9165C2.80523 13.1248 2.22537 12.3575 1.76009 11.6144C1.29481 10.8714 0.940647 10.1561 0.697591 9.46859C0.454536 8.78109 0.333008 8.12484 0.333008 7.49984C0.333008 5.4165 1.00315 3.75678 2.34342 2.52067C3.6837 1.28456 5.23579 0.666504 6.99967 0.666504C8.76356 0.666504 10.3156 1.28456 11.6559 2.52067C12.9962 3.75678 13.6663 5.4165 13.6663 7.49984C13.6663 8.12484 13.5448 8.78109 13.3018 9.46859C13.0587 10.1561 12.7045 10.8714 12.2393 11.6144C11.774 12.3575 11.1941 13.1248 10.4997 13.9165C9.80523 14.7082 9.00662 15.5207 8.10384 16.354C7.95106 16.4929 7.77745 16.5971 7.58301 16.6665C7.38856 16.736 7.19412 16.7707 6.99967 16.7707ZM6.99967 8.99984C7.45801 8.99984 7.85037 8.83664 8.17676 8.51025C8.50315 8.18387 8.66634 7.7915 8.66634 7.33317C8.66634 6.87484 8.50315 6.48248 8.17676 6.15609C7.85037 5.8297 7.45801 5.6665 6.99967 5.6665C6.54134 5.6665 6.14898 5.8297 5.82259 6.15609C5.4962 6.48248 5.33301 6.87484 5.33301 7.33317C5.33301 7.7915 5.4962 8.18387 5.82259 8.51025C6.14898 8.83664 6.54134 8.99984 6.99967 8.99984Z" fill="#222222"/>
</svg>
