<svg width="10" height="5" viewBox="0 0 10 5" fill="none" xmlns="http://www.w3.org/2000/svg">
<path d="M5.5248 0.525L9.1498 4.15C9.1998 4.2 9.2373 4.25417 9.2623 4.3125C9.2873 4.37083 9.2998 4.43333 9.2998 4.5C9.2998 4.63333 9.25397 4.75 9.1623 4.85C9.07064 4.95 8.9498 5 8.7998 5L1.1998 5C1.0498 5 0.92897 4.95 0.837304 4.85C0.745638 4.75 0.699804 4.63333 0.699804 4.5C0.699804 4.46667 0.749804 4.35 0.849805 4.15L4.4748 0.525C4.55814 0.441666 4.64147 0.383333 4.7248 0.349999C4.80814 0.316666 4.8998 0.3 4.9998 0.3C5.0998 0.3 5.19147 0.316666 5.2748 0.349999C5.35814 0.383333 5.44147 0.441666 5.5248 0.525Z" fill="#222222"/>
</svg>
