<svg width="154" height="84" viewBox="0 0 154 84" fill="none" xmlns="http://www.w3.org/2000/svg">
<path d="M73.8262 42V27.7812H76.6582V40.1055H83.1816L83.0547 42H73.8262ZM89.6465 42.1953C88.5918 42.1953 87.6576 41.974 86.8438 41.5312C86.0365 41.0885 85.4049 40.4603 84.9492 39.6465C84.4935 38.8262 84.2656 37.8529 84.2656 36.7266C84.2656 35.5807 84.4837 34.5977 84.9199 33.7773C85.3561 32.9505 85.9583 32.319 86.7266 31.8828C87.4948 31.4401 88.3704 31.2188 89.3535 31.2188C90.3496 31.2188 91.1699 31.4238 91.8145 31.834C92.4655 32.2441 92.9505 32.8203 93.2695 33.5625C93.5951 34.3047 93.7643 35.1771 93.7773 36.1797C93.7773 36.3424 93.7676 36.5117 93.748 36.6875C93.735 36.8633 93.7188 37.013 93.6992 37.1367C93.6862 37.2604 93.6764 37.3353 93.6699 37.3613H86.9414C86.9935 38.0384 87.1562 38.6048 87.4297 39.0605C87.7031 39.5098 88.0579 39.8483 88.4941 40.0762C88.9303 40.2975 89.4186 40.4082 89.959 40.4082C90.5319 40.4082 91.0462 40.3268 91.502 40.1641C91.9642 39.9948 92.4069 39.7832 92.8301 39.5293H92.9766L93.5625 41.0137C93.1458 41.3587 92.5924 41.6419 91.9023 41.8633C91.2188 42.0846 90.4668 42.1953 89.6465 42.1953ZM86.9219 35.8379H91.5215C91.515 34.8809 91.3392 34.168 90.9941 33.6992C90.6491 33.2305 90.138 32.9961 89.4609 32.9961C88.7578 32.9961 88.1751 33.2337 87.7129 33.709C87.2507 34.1777 86.987 34.8874 86.9219 35.8379ZM96.1895 42V31.4336H98.4648L98.6406 33.2598C98.9401 32.6087 99.3633 32.1074 99.9102 31.7559C100.464 31.3978 101.16 31.2188 102 31.2188C103.185 31.2188 104.07 31.5996 104.656 32.3613C105.242 33.1165 105.535 34.1745 105.535 35.5352V42H102.85V35.7012C102.85 35.0892 102.794 34.5879 102.684 34.1973C102.579 33.8001 102.404 33.5039 102.156 33.3086C101.915 33.1133 101.59 33.0156 101.18 33.0156C100.796 33.0156 100.46 33.084 100.174 33.2207C99.8874 33.3574 99.6465 33.556 99.4512 33.8164C99.2624 34.0703 99.1191 34.3796 99.0215 34.7441C98.9238 35.1087 98.875 35.5189 98.875 35.9746V42H96.1895ZM112.84 42.0879C111.987 42.0879 111.3 42.013 110.779 41.8633C110.265 41.7135 109.874 41.4857 109.607 41.1797C109.34 40.8737 109.161 40.4831 109.07 40.0078C108.979 39.526 108.934 38.9531 108.934 38.2891V32.9961H107.312L107.371 31.5703L109.012 31.4238L109.227 28.4844L111.59 28.2988V31.4336H114.402V32.9961H111.59V38.3574C111.59 38.8262 111.626 39.194 111.697 39.4609C111.769 39.7214 111.919 39.9102 112.146 40.0273C112.374 40.138 112.716 40.2031 113.172 40.2227C113.393 40.2292 113.611 40.2389 113.826 40.252C114.048 40.2585 114.269 40.265 114.49 40.2715L114.402 42.0488C114.142 42.0553 113.882 42.0618 113.621 42.0684C113.361 42.0749 113.1 42.0814 112.84 42.0879ZM121.404 42.1953C120.35 42.1953 119.415 41.974 118.602 41.5312C117.794 41.0885 117.163 40.4603 116.707 39.6465C116.251 38.8262 116.023 37.8529 116.023 36.7266C116.023 35.5807 116.242 34.5977 116.678 33.7773C117.114 32.9505 117.716 32.319 118.484 31.8828C119.253 31.4401 120.128 31.2188 121.111 31.2188C122.107 31.2188 122.928 31.4238 123.572 31.834C124.223 32.2441 124.708 32.8203 125.027 33.5625C125.353 34.3047 125.522 35.1771 125.535 36.1797C125.535 36.3424 125.525 36.5117 125.506 36.6875C125.493 36.8633 125.477 37.013 125.457 37.1367C125.444 37.2604 125.434 37.3353 125.428 37.3613H118.699C118.751 38.0384 118.914 38.6048 119.188 39.0605C119.461 39.5098 119.816 39.8483 120.252 40.0762C120.688 40.2975 121.176 40.4082 121.717 40.4082C122.29 40.4082 122.804 40.3268 123.26 40.1641C123.722 39.9948 124.165 39.7832 124.588 39.5293H124.734L125.32 41.0137C124.904 41.3587 124.35 41.6419 123.66 41.8633C122.977 42.0846 122.225 42.1953 121.404 42.1953ZM118.68 35.8379H123.279C123.273 34.8809 123.097 34.168 122.752 33.6992C122.407 33.2305 121.896 32.9961 121.219 32.9961C120.516 32.9961 119.933 33.2337 119.471 33.709C119.008 34.1777 118.745 34.8874 118.68 35.8379ZM127.938 42V31.4336H130.223L130.398 33.377C130.737 32.6087 131.157 32.0781 131.658 31.7852C132.16 31.4922 132.69 31.3457 133.25 31.3457C133.419 31.3457 133.582 31.3522 133.738 31.3652C133.901 31.3783 134.061 31.401 134.217 31.4336L134.041 33.4258C133.93 33.4128 133.82 33.403 133.709 33.3965C133.598 33.3835 133.501 33.377 133.416 33.377C132.863 33.377 132.374 33.4876 131.951 33.709C131.535 33.9238 131.206 34.2298 130.965 34.627C130.73 35.0241 130.613 35.4928 130.613 36.0332V42H127.938ZM138.797 42.1758C137.814 42.1758 137.01 41.9186 136.385 41.4043C135.766 40.8835 135.457 40.1055 135.457 39.0703C135.457 38.5234 135.568 38.0579 135.789 37.6738C136.017 37.2897 136.329 36.9772 136.727 36.7363C137.124 36.4954 137.589 36.3197 138.123 36.209C138.663 36.0918 139.246 36.0332 139.871 36.0332H141.775V35.0762C141.775 34.3861 141.603 33.8913 141.258 33.5918C140.919 33.2858 140.428 33.1328 139.783 33.1328C139.301 33.1328 138.758 33.2109 138.152 33.3672C137.547 33.5234 136.967 33.7448 136.414 34.0312L135.838 32.3125C136.274 32.0716 136.73 31.873 137.205 31.7168C137.687 31.554 138.175 31.4336 138.67 31.3555C139.165 31.2708 139.65 31.2285 140.125 31.2285C140.945 31.2285 141.678 31.3685 142.322 31.6484C142.967 31.9284 143.475 32.3809 143.846 33.0059C144.217 33.6309 144.402 34.4544 144.402 35.4766V42H142.352L142.098 40.7695C141.844 41.056 141.557 41.3066 141.238 41.5215C140.919 41.7298 140.558 41.8893 140.154 42C139.757 42.1172 139.305 42.1758 138.797 42.1758ZM139.52 40.6035C140.014 40.6035 140.454 40.5026 140.838 40.3008C141.222 40.099 141.531 39.8516 141.766 39.5586V37.3906H140.447C139.894 37.3906 139.425 37.446 139.041 37.5566C138.657 37.6673 138.367 37.8464 138.172 38.0938C137.977 38.3346 137.879 38.6569 137.879 39.0605C137.879 39.6204 138.042 40.0176 138.367 40.252C138.693 40.4863 139.077 40.6035 139.52 40.6035Z" fill="#F3941E"/>
<path d="M77.0176 59.1367C76.1198 59.1367 75.3815 58.9795 74.8027 58.665C74.2285 58.346 73.8024 57.8994 73.5244 57.3252C73.251 56.7464 73.1143 56.0742 73.1143 55.3086V49.04H74.7754V55.2471C74.7754 56.1175 74.9486 56.7738 75.2949 57.2158C75.6458 57.6533 76.2201 57.8721 77.0176 57.8721C77.8014 57.8721 78.3734 57.6533 78.7334 57.2158C79.0934 56.7738 79.2734 56.1152 79.2734 55.2402V49.04H80.9346V55.3291C80.9346 56.0765 80.7933 56.7373 80.5107 57.3115C80.2282 57.8857 79.7975 58.3346 79.2188 58.6582C78.6445 58.9772 77.9108 59.1367 77.0176 59.1367ZM83.1357 59V51.6035H84.4482L84.5781 52.9912C84.7969 52.4762 85.0977 52.0911 85.4805 51.8359C85.8678 51.5762 86.3145 51.4463 86.8203 51.4463C87.1758 51.4463 87.4971 51.5101 87.7842 51.6377C88.0758 51.7653 88.3242 51.9521 88.5293 52.1982C88.7389 52.4398 88.8962 52.7383 89.001 53.0938C89.2288 52.556 89.5456 52.1481 89.9512 51.8701C90.3613 51.5876 90.8398 51.4463 91.3867 51.4463C92.1615 51.4463 92.7539 51.6901 93.1641 52.1777C93.5788 52.6654 93.7861 53.3649 93.7861 54.2764V59H92.2275V54.6318C92.2275 54.2536 92.1956 53.9072 92.1318 53.5928C92.068 53.2738 91.9473 53.0186 91.7695 52.8271C91.5918 52.6357 91.3298 52.54 90.9834 52.54C90.7054 52.54 90.432 52.6312 90.1631 52.8135C89.8988 52.9958 89.6777 53.2555 89.5 53.5928C89.3268 53.93 89.2402 54.3356 89.2402 54.8096V59H87.6816V54.8096C87.6816 54.2718 87.6383 53.8366 87.5518 53.5039C87.4652 53.1712 87.3285 52.9274 87.1416 52.7725C86.9548 52.6175 86.7109 52.54 86.4102 52.54C86.0866 52.54 85.804 52.6289 85.5625 52.8066C85.321 52.9798 85.125 53.2236 84.9746 53.5381C84.8288 53.8525 84.7354 54.2194 84.6943 54.6387V59H83.1357ZM97.8604 59.1299C97.1631 59.1299 96.5934 58.9521 96.1514 58.5967C95.7139 58.2367 95.4951 57.6943 95.4951 56.9697C95.4951 56.6143 95.5635 56.3066 95.7002 56.0469C95.8369 55.7826 96.0352 55.5638 96.2949 55.3906C96.5547 55.2174 96.8714 55.0898 97.2451 55.0078C97.6188 54.9212 98.0426 54.8779 98.5166 54.8779H100.021V54.1123C100.021 53.5745 99.8929 53.1872 99.6377 52.9502C99.3825 52.7087 99.0065 52.5879 98.5098 52.5879C98.1634 52.5879 97.7738 52.6426 97.3408 52.752C96.9124 52.8613 96.5137 53.0277 96.1445 53.251L95.7617 52.1777C96.0397 52.0137 96.3382 51.8792 96.6572 51.7744C96.9762 51.665 97.3044 51.583 97.6416 51.5283C97.9788 51.4736 98.3138 51.4463 98.6465 51.4463C99.2116 51.4463 99.7129 51.542 100.15 51.7334C100.588 51.9202 100.93 52.2233 101.176 52.6426C101.426 53.0573 101.552 53.6133 101.552 54.3105V59H100.314L100.185 58.1182C99.9977 58.3324 99.7904 58.5146 99.5625 58.665C99.3346 58.8154 99.0794 58.9294 98.7969 59.0068C98.5189 59.0889 98.2067 59.1299 97.8604 59.1299ZM98.209 58.1387C98.6009 58.1387 98.9495 58.0589 99.2549 57.8994C99.5648 57.7354 99.8177 57.5303 100.014 57.2842V55.7461H98.8311C98.3844 55.7461 98.0221 55.7894 97.7441 55.876C97.4661 55.9626 97.2611 56.097 97.1289 56.2793C97.0013 56.457 96.9375 56.6872 96.9375 56.9697C96.9375 57.3981 97.0628 57.7012 97.3135 57.8789C97.5641 58.0521 97.8626 58.1387 98.209 58.1387ZM106.61 59.0547C106.05 59.0547 105.599 59.0091 105.257 58.918C104.915 58.8268 104.655 58.6833 104.478 58.4873C104.304 58.2913 104.186 58.0361 104.122 57.7217C104.063 57.4027 104.033 57.0153 104.033 56.5596V52.5332H102.878L102.919 51.6855L104.074 51.6035L104.238 49.5732L105.578 49.4707V51.6035H107.547V52.5332H105.578V56.5869C105.578 56.9424 105.601 57.2181 105.646 57.4141C105.697 57.6055 105.804 57.7399 105.968 57.8174C106.132 57.8949 106.385 57.9404 106.727 57.9541C106.863 57.9587 107 57.9632 107.137 57.9678C107.278 57.9723 107.419 57.9792 107.561 57.9883L107.499 59.0479C107.353 59.0479 107.205 59.0479 107.055 59.0479C106.909 59.0524 106.761 59.0547 106.61 59.0547Z" fill="#047C7A"/>
<path fill-rule="evenodd" clip-rule="evenodd" d="M7.38889 56.6857C13.7779 57.1631 17.1332 58.304 22.6944 61.9385L22.597 61.9066C17.9758 60.3955 15.3548 59.5384 10.0278 59.3121V67.1912C18.3946 66.5234 22.3315 67.7943 28.5 71.9187C34.9714 67.763 38.9462 66.5106 46.9722 67.1912V59.3121C41.8587 59.0184 39.1563 60.1541 34.3056 61.9385C39.727 58.9172 42.9284 57.5059 49.6111 56.6857V60.3627L56.4722 59.3121V77.6967C43.2327 75.3118 37.5646 77.6474 28.5 84C19.6887 77.7885 14.2653 75.1635 0.527778 77.6967V59.3121L7.38889 60.3627V56.6857ZM49.6111 70.3429C40.714 68.775 36.1824 70.4285 28.5 75.5956C21.6739 70.7056 17.49 68.6786 7.38889 70.3429V62.989H3.69444V73.4945C15.0753 72.4219 20.3618 74.2369 28.5 80.3231C36.6548 74.6559 41.7064 72.4176 53.3056 73.4945V62.989H49.6111V70.3429Z" fill="url(#paint0_linear_97_45)"/>
<path fill-rule="evenodd" clip-rule="evenodd" d="M4.75 22.5429C20.3997 15.1832 37.2853 15.8517 52.25 22.5429L57 18.3407C55.3827 18.3537 54.3841 18.3893 52.7778 17.8155L34.3056 9.41108C36.1597 9.319 37.1994 9.46931 39.0556 10.4616C37.6486 7.6992 36.7994 6.32877 34.3056 6.78473C35.7512 -1.68814 22.1656 -2.81741 22.6944 6.78473C20.7531 6.48584 19.728 7.59131 17.9444 10.4616C19.5881 9.55872 20.6676 9.42047 22.6944 9.41108L4.75 17.8155C3.13344 18.5258 1.84069 18.2618 0 18.3407L4.75 22.5429ZM24.8056 6.78473C24.7651 0.0585409 32.9585 1.06181 32.1944 6.78473H24.8056Z" fill="url(#paint1_linear_97_45)"/>
<path fill-rule="evenodd" clip-rule="evenodd" d="M17.4167 51.9583H15.3056C15.6477 53.2356 15.7445 54.109 16.8889 54.0593H40.1111C41.0061 54.0752 41.252 53.1745 41.6944 51.9583H39.5833C40.5739 51.4688 40.908 51.1198 41.1667 50.3824L49.0833 22.543C32.8081 17.9536 23.7907 17.862 7.91667 22.543L15.8333 50.3824C16.1615 51.2398 16.606 51.4942 17.3773 51.9357L17.4167 51.9583ZM16.3611 22.5429L11.0833 24.1188L17.9444 49.3319C18.2369 50.3667 19.0192 50.8311 21.6389 51.433L16.3611 22.5429ZM18.4722 22.0177C26.0269 20.9101 30.4075 20.8677 38.5278 22.0177L38.3485 23.0682L37.5345 27.8395L36.6457 33.0484L35.9212 37.2944L33.7778 49.8572C33.5274 50.828 33.2292 51.4568 32.7222 51.433H30.6111H26.9167H24.8056C24.0112 51.4684 23.5361 51.0592 23.2222 49.8572L21.0788 37.2944L20.3543 33.0484L19.4656 27.8395L18.6515 23.0682L18.4722 22.0177ZM46.4444 24.1188L40.6389 22.543L35.3611 51.433C36.7148 51.1022 38.5327 50.4243 39.0556 48.8066L46.4444 24.1188Z" fill="url(#paint2_linear_97_45)"/>
<path d="M19 55.1099L20.0556 57.211C23.2792 57.4527 25.1339 58.0918 28.5 59.8374C31.4602 58.0649 33.4087 57.4681 37.4722 57.211L38.5278 55.1099H19Z" fill="#02D4D0"/>
<path d="M37.5345 27.8395C30.4785 27.0347 26.5216 26.9955 19.4656 27.8395L20.3543 33.0484C26.9264 32.3886 30.4833 32.4224 36.6457 33.0484L37.5345 27.8395Z" fill="#F3941E" fill-opacity="0.8"/>
<path fill-rule="evenodd" clip-rule="evenodd" d="M38.3485 23.0682L37.5345 27.8395C30.4785 27.0347 26.5216 26.9955 19.4656 27.8395L18.6515 23.0682C25.0641 22.2256 31.5673 22.2294 38.3485 23.0682Z" fill="#F3941E"/>
<path d="M23.2222 49.8572C23.5361 51.0592 24.0112 51.4684 24.8056 51.433H26.9167C23.5683 48.3855 24.6224 46.0534 26.1631 42.6444C26.9007 41.0123 27.7499 39.1335 28.281 36.8112C26.1159 36.842 23.8952 37.018 21.0788 37.2944L23.2222 49.8572Z" fill="#F3941E" fill-opacity="0.5"/>
<path d="M32.7222 51.433C33.2292 51.4568 33.5274 50.828 33.7778 49.8572L35.9212 37.2944C33.1395 36.9409 30.9306 36.7949 28.6997 36.8071C29.1873 39.0716 30.0362 40.9187 30.7892 42.5573C32.276 45.7928 33.3892 48.2154 30.6111 51.433H32.7222Z" fill="#F3941E" fill-opacity="0.5"/>
<path d="M40.8615 28.632L40.0465 33.0484L39.9415 33.6175L42.1875 34.3802L42.2564 34.1428L43.6286 29.4153L40.8615 28.632Z" fill="#F3941E" fill-opacity="0.8"/>
<path d="M39.9415 33.6175L39.2629 37.2944L39.166 37.8197L41.0078 38.4445L42.1875 34.3802L39.9415 33.6175Z" fill="#F3941E" fill-opacity="0.7"/>
<path fill-rule="evenodd" clip-rule="evenodd" d="M44.8611 25.1693L41.6944 24.1188L41.0078 27.8395L40.8615 28.632L43.6286 29.4153L43.7811 28.8901L44.8611 25.1693Z" fill="#F3941E"/>
<path d="M36.9444 49.8572C37.5361 49.5831 37.7986 49.3769 38 48.8066L41.0078 38.4445L39.166 37.8197L36.9444 49.8572Z" fill="#F3941E" fill-opacity="0.5"/>
<path d="M15.3056 24.1188L12.6667 25.1693L13.6636 28.8901L13.8043 29.4153L16.1385 28.632L15.9922 27.8395L15.3056 24.1188Z" fill="#F3941E"/>
<path d="M16.9535 33.0484L16.1385 28.632L13.8043 29.4153L15.071 34.1428L15.1346 34.3802L17.0585 33.6175L16.9535 33.0484Z" fill="#F3941E" fill-opacity="0.8"/>
<path d="M17.7371 37.2944L17.0585 33.6175L15.1346 34.3802L16.2236 38.4445L17.8341 37.8197L17.7371 37.2944Z" fill="#F3941E" fill-opacity="0.7"/>
<path d="M36.6457 33.0484C30.4833 32.4224 26.9264 32.3886 20.3543 33.0484L21.0788 37.2944C23.8952 37.018 26.1159 36.842 28.281 36.8112C28.3619 36.4575 28.4354 36.0936 28.5 35.7186C28.5567 36.0921 28.6238 36.4546 28.6997 36.8071C30.9306 36.7949 33.1395 36.9409 35.9212 37.2944L36.6457 33.0484Z" fill="#F3941E" fill-opacity="0.7"/>
<path fill-rule="evenodd" clip-rule="evenodd" d="M19.8139 49.6931C19.8234 49.6995 19.8331 49.7059 19.8427 49.7124Z" fill="#F3941E"/>
<path d="M16.3611 38.9577L19 48.8066C19.1582 49.2555 19.4332 49.439 19.8139 49.6931L19.8427 49.7124C19.9105 49.7576 19.9814 49.8053 20.0556 49.8572L17.8341 37.8197L16.2236 38.4445L16.3611 38.9577Z" fill="#F3941E" fill-opacity="0.5"/>
<defs>
<linearGradient id="paint0_linear_97_45" x1="28.5" y1="0" x2="28.5" y2="84" gradientUnits="userSpaceOnUse">
<stop offset="0.724587" stop-color="#F9C98E"/>
<stop offset="1" stop-color="#F3941E"/>
</linearGradient>
<linearGradient id="paint1_linear_97_45" x1="28.5" y1="0" x2="28.5" y2="84" gradientUnits="userSpaceOnUse">
<stop stop-color="#024342"/>
<stop offset="0.187836" stop-color="#05A9A6"/>
</linearGradient>
<linearGradient id="paint2_linear_97_45" x1="28.5" y1="0" x2="28.5" y2="84" gradientUnits="userSpaceOnUse">
<stop stop-color="#05A9A6"/>
<stop offset="1" stop-color="#00EDE9"/>
</linearGradient>
</defs>
</svg>
