<svg width="60" height="60" viewBox="0 0 60 60" fill="none" xmlns="http://www.w3.org/2000/svg">
<path fill-rule="evenodd" clip-rule="evenodd" d="M57.5 10C57.5 7.7899 54.6375 7.00378 52.7438 6.4837C52.5697 6.43593 52.404 6.39038 52.2493 6.3462C49.8843 5.67045 46.5255 5 42.5 5C38.1905 5 34.6372 6.435 32.1972 7.8294C31.824 8.04267 31.4315 8.3373 31.0768 8.60358C30.6083 8.95538 30.2057 9.2577 30 9.2577C29.7943 9.2577 29.3917 8.95538 28.9232 8.60358C28.5685 8.3373 28.176 8.04267 27.8028 7.8294C25.3628 6.435 21.8095 5 17.5 5C13.4745 5 10.1158 5.67045 7.7507 6.3462C7.60197 6.38868 7.44263 6.43255 7.2754 6.4786C5.39 6.99777 2.5 7.79355 2.5 10V42.5C2.5 43.3665 2.94862 44.171 3.68567 44.6268C4.85822 45.3512 6.4056 44.717 7.77685 44.155C8.25522 43.9588 8.71217 43.7715 9.1243 43.6538C11.1342 43.0795 14.0255 42.5 17.5 42.5C20.6532 42.5 23.0138 43.5402 24.7835 44.6292C25.238 44.909 25.6975 45.2658 26.169 45.6318C27.3345 46.537 28.5745 47.5 30 47.5C31.4295 47.5 32.6632 46.5405 33.8267 45.6357C34.2987 45.2685 34.7593 44.9105 35.2165 44.6292C36.9863 43.5402 39.3467 42.5 42.5 42.5C45.9745 42.5 48.8657 43.0795 50.8757 43.6538C51.3068 43.777 51.7747 43.9745 52.2605 44.1797C53.6107 44.75 55.0982 45.3783 56.3142 44.6268C57.0513 44.171 57.5 43.3665 57.5 42.5V10ZM8.3313 11.3937C7.82907 11.554 7.5 12.0269 7.5 12.5541V37.2477C7.5 38.0825 8.30222 38.6833 9.11367 38.4877C11.3394 37.9517 14.1944 37.5 17.5 37.5C21.9077 37.5 25.1985 38.9985 27.5 40.4303V13.6392C26.9972 13.2398 26.2592 12.7061 25.3222 12.1706C23.3873 11.065 20.6905 10 17.5 10C13.5377 10 10.3247 10.7574 8.3313 11.3937ZM42.5 37.5C38.0923 37.5 34.8015 38.9985 32.5 40.4303V13.6392C33.0028 13.2398 33.7408 12.7061 34.6777 12.1706C36.6128 11.065 39.3095 10 42.5 10C46.4622 10 49.6752 10.7574 51.6687 11.3937C52.171 11.554 52.5 12.0269 52.5 12.5541V37.2477C52.5 38.0825 51.6978 38.6833 50.8862 38.4877C48.6605 37.9517 45.8055 37.5 42.5 37.5Z" fill="black"/>
<path d="M5.21899 51.0218C4.65464 49.7618 5.21869 48.2827 6.47879 47.7182C7.64939 47.198 8.86126 46.7608 10.0801 46.3695C12.1023 45.7208 14.8984 45 17.5006 45C20.4178 45 22.9077 46.5722 24.7123 47.7117C24.805 47.7702 24.8958 47.8275 24.9848 47.8835C27.0874 49.2053 28.5016 50 30.0006 50C31.4979 50 32.9036 49.2072 35.0036 47.8845C35.0899 47.8302 35.1776 47.7748 35.2671 47.718C37.0734 46.5758 39.5649 45 42.5006 45C45.1169 45 47.9124 45.7203 49.9336 46.37C51.7486 46.9535 53.0951 47.5305 53.4411 47.6825C54.7061 48.242 55.3614 49.7357 54.7801 51.0262C54.2174 52.2765 52.7154 52.8313 51.4691 52.2773C50.4714 51.8373 49.4409 51.4637 48.4031 51.13C46.5361 50.5297 44.3316 50 42.5006 50C41.1029 50 39.7599 50.7965 37.5179 52.2102C35.6594 53.3822 33.0939 55 30.0006 55C26.9054 55 24.3315 53.3803 22.4677 52.2073C20.2212 50.7933 18.8812 50 17.5006 50C15.6851 50 13.4812 50.5292 11.6078 51.1305C10.5641 51.4653 9.52496 51.8377 8.52186 52.282C7.26186 52.8457 5.78324 52.2818 5.21899 51.0218Z" fill="black"/>
</svg>
