<svg width="156" height="205" viewBox="0 0 156 205" fill="none" xmlns="http://www.w3.org/2000/svg">
<path fill-rule="evenodd" clip-rule="evenodd" d="M20.2222 138.34C37.7078 139.505 46.8908 142.289 62.1111 151.159L61.8445 151.082C49.1968 147.394 42.0235 145.302 27.4444 144.75V163.979C50.3432 162.349 61.1178 165.45 78 175.516C95.7113 165.374 106.59 162.317 128.556 163.979V144.75C114.561 144.033 107.165 146.805 93.8889 151.159C108.726 143.786 117.488 140.342 135.778 138.34V147.314L154.556 144.75V189.617C118.321 183.797 102.808 189.497 78 205C53.8848 189.841 39.0418 183.435 1.44444 189.617V144.75L20.2222 147.314V138.34ZM135.778 171.67C111.428 167.844 99.0255 171.879 78 184.489C59.318 172.555 47.8673 167.608 20.2222 171.67V153.723H10.1111V179.362C41.2587 176.744 55.7271 181.174 78 196.027C100.318 182.196 114.144 176.734 145.889 179.362V153.723H135.778V171.67Z" fill="url(#paint0_linear_24_3248)"/>
<path fill-rule="evenodd" clip-rule="evenodd" d="M13 55.0155C55.8308 37.0543 102.044 38.6856 143 55.0155L156 44.7601C151.574 44.7918 148.841 44.8787 144.444 43.4782L93.8889 22.9675C98.9635 22.7428 101.809 23.1096 106.889 25.5314C103.038 18.7897 100.714 15.4452 93.8889 16.558C97.8455 -4.11986 60.6638 -6.87583 62.1111 16.558C56.7979 15.8286 53.9925 18.5264 49.1111 25.5314C53.6095 23.3278 56.564 22.9904 62.1111 22.9675L13 43.4782C8.57574 45.2117 5.03768 44.5675 0 44.7601L13 55.0155ZM67.8889 16.558C67.7783 0.142868 90.2022 2.59132 88.1111 16.558H67.8889Z" fill="url(#paint1_linear_24_3248)"/>
<path fill-rule="evenodd" clip-rule="evenodd" d="M47.6667 126.803H41.8889C42.8253 129.92 43.0903 132.052 46.2222 131.931H109.778C112.227 131.969 112.9 129.771 114.111 126.803H108.333C111.044 125.608 111.959 124.757 112.667 122.957L134.333 55.0155C89.7906 43.8153 65.1113 43.5917 21.6667 55.0155L43.3333 122.957C44.2314 125.049 45.4479 125.67 47.559 126.748L47.6667 126.803ZM44.7778 55.0155L30.3333 58.8613L49.1111 120.393C49.9116 122.919 52.0526 124.052 59.2222 125.521L44.7778 55.0155ZM50.5556 53.7336C71.2316 51.0305 83.2206 50.9272 105.444 53.7336L104.954 56.2974L102.726 67.9417L100.293 80.6539L98.3108 91.0162L92.4444 121.675C91.7592 124.045 90.9431 125.579 89.5556 125.521H83.7778H73.6667H67.8889C65.7148 125.607 64.4145 124.609 63.5556 121.675L57.6892 91.0162L55.7065 80.6539L53.2741 67.9417L51.0461 56.2974L50.5556 53.7336ZM127.111 58.8613L111.222 55.0155L96.7778 125.521C100.483 124.714 105.458 123.059 106.889 119.111L127.111 58.8613Z" fill="url(#paint2_linear_24_3248)"/>
<path d="M52 134.494L54.8889 139.622C63.7115 140.212 68.7875 141.772 78 146.032C86.1016 141.706 91.4345 140.25 102.556 139.622L105.444 134.494H52Z" fill="#02D4D0"/>
<path d="M102.726 67.9417C83.4148 65.9774 72.5854 65.8818 53.2741 67.9417L55.7065 80.6539C73.6933 79.0437 83.4279 79.1262 100.293 80.6539L102.726 67.9417Z" fill="#F3941E" fill-opacity="0.8"/>
<path fill-rule="evenodd" clip-rule="evenodd" d="M104.954 56.2974L102.726 67.9417C83.4148 65.9774 72.5854 65.8818 53.2741 67.9417L51.0461 56.2974C68.5966 54.241 86.3947 54.2502 104.954 56.2974Z" fill="#F3941E"/>
<path d="M63.5556 121.675C64.4145 124.609 65.7148 125.607 67.8889 125.521H73.6667C64.5027 118.084 67.3875 112.392 71.6043 104.073C73.6231 100.09 75.9471 95.5044 77.4006 89.8369C71.475 89.9119 65.3973 90.3416 57.6892 91.0162L63.5556 121.675Z" fill="#F3941E" fill-opacity="0.5"/>
<path d="M89.5556 125.521C90.9431 125.579 91.7592 124.045 92.4444 121.675L98.3108 91.0162C90.6976 90.1533 84.6523 89.7971 78.5466 89.8269C79.8811 95.3533 82.2042 99.8611 84.2651 103.86C88.3342 111.756 91.3811 117.669 83.7778 125.521H89.5556Z" fill="#F3941E" fill-opacity="0.5"/>
<path d="M111.832 69.8757L109.601 80.6539L109.313 82.0428L115.461 83.9041L115.649 83.3247L119.405 71.7874L111.832 69.8757Z" fill="#F3941E" fill-opacity="0.8"/>
<path d="M109.313 82.0428L107.456 91.0162L107.191 92.2981L112.232 93.8228L115.461 83.9041L109.313 82.0428Z" fill="#F3941E" fill-opacity="0.7"/>
<path fill-rule="evenodd" clip-rule="evenodd" d="M122.778 61.4251L114.111 58.8613L112.232 67.9417L111.832 69.8757L119.405 71.7874L119.822 70.5055L122.778 61.4251Z" fill="#F3941E"/>
<path d="M101.111 121.675C102.73 121.006 103.449 120.503 104 119.111L112.232 93.8228L107.191 92.2981L101.111 121.675Z" fill="#F3941E" fill-opacity="0.5"/>
<path d="M41.8889 58.8613L34.6667 61.4251L37.3951 70.5055L37.7803 71.7874L44.1684 69.8757L43.7682 67.9417L41.8889 58.8613Z" fill="#F3941E"/>
<path d="M46.3991 80.6539L44.1684 69.8757L37.7803 71.7874L41.247 83.3247L41.4211 83.9041L46.6865 82.0428L46.3991 80.6539Z" fill="#F3941E" fill-opacity="0.8"/>
<path d="M48.5437 91.0162L46.6865 82.0428L41.4211 83.9041L44.4014 93.8228L48.809 92.2981L48.5437 91.0162Z" fill="#F3941E" fill-opacity="0.7"/>
<path d="M100.293 80.6539C83.4279 79.1262 73.6933 79.0437 55.7065 80.6539L57.6892 91.0162C65.3973 90.3416 71.475 89.9119 77.4006 89.8369C77.622 88.9738 77.8232 88.0855 78 87.1704C78.1551 88.0819 78.3389 88.9667 78.5466 89.8269C84.6523 89.7971 90.6976 90.1533 98.3108 91.0162L100.293 80.6539Z" fill="#F3941E" fill-opacity="0.7"/>
<path fill-rule="evenodd" clip-rule="evenodd" d="M54.2275 121.275C54.2536 121.29 54.28 121.306 54.3065 121.322Z" fill="#F3941E"/>
<path d="M44.7778 95.0754L52 119.111C52.4329 120.207 53.1855 120.655 54.2275 121.275L54.3065 121.322C54.4918 121.432 54.686 121.549 54.8889 121.675L48.809 92.2981L44.4014 93.8228L44.7778 95.0754Z" fill="#F3941E" fill-opacity="0.5"/>
<defs>
<linearGradient id="paint0_linear_24_3248" x1="78" y1="0" x2="78" y2="205" gradientUnits="userSpaceOnUse">
<stop offset="0.724587" stop-color="#F9C98E"/>
<stop offset="1" stop-color="#F3941E"/>
</linearGradient>
<linearGradient id="paint1_linear_24_3248" x1="78" y1="0" x2="78" y2="205" gradientUnits="userSpaceOnUse">
<stop stop-color="#024342"/>
<stop offset="0.187836" stop-color="#05A9A6"/>
</linearGradient>
<linearGradient id="paint2_linear_24_3248" x1="78" y1="0" x2="78" y2="205" gradientUnits="userSpaceOnUse">
<stop stop-color="#05A9A6"/>
<stop offset="1" stop-color="#00EDE9"/>
</linearGradient>
</defs>
</svg>
