<svg width="178" height="227" viewBox="0 0 178 227" fill="none" xmlns="http://www.w3.org/2000/svg">
<path d="M168.125 19.1125C167.661 19.1424 167.176 19.2264 166.67 19.3664C160.923 22.6606 164.352 43.6309 149.701 67.884C138.202 88.7017 100.795 97.2098 97.7774 98.1965C97.5578 98.3062 81.131 103.709 80.2461 104.154C76.1524 105.316 68.7408 109.733 65.9121 112.197C65.3077 112.401 57.3927 119.558 66.711 120.823C71.1919 121.017 71.6891 121.379 72.1543 121.406L87.8575 122.753C109.579 126.663 114.213 142.676 113.854 144.366C106.776 194.683 59.5231 225.03 71.8789 226.966C107.797 222.362 134.147 185.45 135.197 183.98C151.468 164.962 156.453 151.641 162.584 134.577C166.862 123.618 167.559 120.118 169.742 108.249C176.929 69.1773 182.509 18.1866 168.125 19.1125ZM113.863 39.4036C100.589 39.4034 89.8282 49.0827 89.8281 61.0227C89.8282 72.9627 100.589 82.642 113.863 82.6418C127.137 82.642 137.898 72.9627 137.898 61.0227C137.898 49.0827 127.137 39.4034 113.863 39.4036Z" fill="#205781"/>
<path d="M43.3579 34.6157C52.4148 34.6156 59.757 41.5708 59.757 50.1506C59.757 58.7303 52.4148 65.6855 43.3579 65.6854C34.3009 65.6855 26.9588 58.7303 26.9587 50.1506C26.9588 41.5708 34.3009 34.6156 43.3579 34.6157Z" fill="#205781"/>
<path d="M6.33512 20.0353C6.65169 20.0568 6.98257 20.1171 7.32793 20.2177C11.2488 22.5849 8.90914 37.6534 18.9057 55.081C26.7515 70.0399 52.2742 76.1535 54.3332 76.8626C54.4829 76.9414 65.691 80.8237 66.2948 81.1431C69.0879 81.9786 74.1449 85.1526 76.0748 86.9225C76.4872 87.0695 81.8876 92.2122 75.5298 93.1216C72.4724 93.2608 72.1332 93.5208 71.8158 93.5398L61.1016 94.5082C46.2807 97.318 43.1195 108.824 43.3645 110.039C48.1934 146.195 80.4341 168.001 72.0037 169.392C47.4969 166.084 29.5183 139.561 28.8017 138.504C17.7003 124.838 14.299 115.266 10.1158 103.005C7.19712 95.1298 6.72132 92.6146 5.23172 84.0862C0.328074 56.0103 -3.47923 19.37 6.33512 20.0353Z" fill="url(#paint0_linear_1035_18)"/>
<path d="M166.059 0.833008L162.156 4.30472L162.049 15.9823L173.439 16.0217L176.49 11.6426L176.313 1.03027L166.059 0.833008Z" fill="#205781"/>
<path d="M162.184 4.26195L173.51 4.3443L173.368 15.9824L173.51 4.26539L176.033 1.38366L176.317 1.06833L173.51 4.26539L167.691 4.29486L171.079 0.882324L167.691 4.285L162.184 4.26195Z" fill="#205781"/>
<path d="M4.09045 8.11328L1.64014 10.3043L1.57324 17.6741L8.72366 17.6991L10.6394 14.9354L10.5278 8.23782L4.09045 8.11328Z" fill="#205781" stroke="#205781" stroke-width="0.604214" stroke-miterlimit="1" stroke-linecap="round"/>
<path d="M1.65771 10.277L8.76836 10.329L8.67918 17.6739L8.76836 10.2792L10.3527 8.46056L10.5311 8.26152L8.76836 10.2792L5.11531 10.2977L7.2426 8.14404L5.11531 10.2915L1.65771 10.277Z" fill="#205781"/>
<path d="M8.76836 10.2792L8.67918 17.6739L8.76836 10.329L1.65771 10.277L5.11531 10.2915L7.2426 8.14404L5.11531 10.2977L8.76836 10.2792ZM8.76836 10.2792L10.3527 8.46056L10.5311 8.26152L8.76836 10.2792Z" stroke="#205781" stroke-width="0.604214" stroke-miterlimit="1" stroke-linecap="round"/>
<path d="M3.95679 11.8726H6.36252" stroke="#205781" stroke-width="0.604214" stroke-miterlimit="1" stroke-linecap="round" stroke-linejoin="round"/>
<defs>
<linearGradient id="paint0_linear_1035_18" x1="1.71873" y1="13.2093" x2="175.106" y2="448.709" gradientUnits="userSpaceOnUse">
<stop stop-color="#205781"/>
<stop offset="1" stop-color="#205781" stop-opacity="0"/>
</linearGradient>
</defs>
</svg>
